<svg width="28" height="28" viewBox="0 0 28 28" fill="none" xmlns="http://www.w3.org/2000/svg">
<path d="M23.3333 15.1667H4.66667C4.025 15.1667 3.5 15.6917 3.5 16.3333V23.3333C3.5 23.975 4.025 24.5 4.66667 24.5H23.3333C23.975 24.5 24.5 23.975 24.5 23.3333V16.3333C24.5 15.6917 23.975 15.1667 23.3333 15.1667ZM8.16667 22.1667C6.88333 22.1667 5.83333 21.1167 5.83333 19.8333C5.83333 18.55 6.88333 17.5 8.16667 17.5C9.45 17.5 10.5 18.55 10.5 19.8333C10.5 21.1167 9.45 22.1667 8.16667 22.1667ZM23.3333 3.5H4.66667C4.025 3.5 3.5 4.025 3.5 4.66667V11.6667C3.5 12.3083 4.025 12.8333 4.66667 12.8333H23.3333C23.975 12.8333 24.5 12.3083 24.5 11.6667V4.66667C24.5 4.025 23.975 3.5 23.3333 3.5ZM8.16667 10.5C6.88333 10.5 5.83333 9.45 5.83333 8.16667C5.83333 6.88333 6.88333 5.83333 8.16667 5.83333C9.45 5.83333 10.5 6.88333 10.5 8.16667C10.5 9.45 9.45 10.5 8.16667 10.5Z" fill="#FF725F"/>
</svg>
